<svg xmlns="http://www.w3.org/2000/svg" width="62.87mm" height="20.68mm" viewBox="0 0 178.23 58.61"><path d="M323.54,284.13a19.41,19.41,0,0,1,2.92-.21,6.32,6.32,0,0,1,4.3,1.26,4.47,4.47,0,0,1,1.5,3.6,5.17,5.17,0,0,1-1.53,3.91,6.81,6.81,0,0,1-4.7,1.45c-1,0-1.79,0-2.49-.11Zm1.38,8.9a10.75,10.75,0,0,0,1.37.06c2.94,0,4.52-1.54,4.52-4.26,0-2.38-1.4-3.88-4.29-3.88a8.38,8.38,0,0,0-1.6.14Z" transform="translate(-262.65 -262.8)" fill="#1d1d1b"/><path d="M336.49,290.89l-1.1,3.16H334L337.58,284h1.65l3.62,10.06h-1.46l-1.14-3.16Zm3.49-1-1.06-2.9c-.23-.66-.39-1.26-.54-1.83h0c-.15.58-.32,1.2-.53,1.81l-1,2.92Z" transform="translate(-262.65 -262.8)" fill="#1d1d1b"/><path d="M346.87,294.05,343.4,284h1.49l1.65,5c.45,1.36.84,2.59,1.13,3.76h0a37.39,37.39,0,0,1,1.21-3.74l1.79-5h1.47l-3.8,10.06Z" transform="translate(-262.65 -262.8)" fill="#1d1d1b"/><path d="M355.66,284v10.06h-1.38V284Z" transform="translate(-262.65 -262.8)" fill="#1d1d1b"/><path d="M359,284.13a19.41,19.41,0,0,1,2.92-.21,6.32,6.32,0,0,1,4.3,1.26,4.47,4.47,0,0,1,1.5,3.6,5.2,5.2,0,0,1-1.52,3.91,6.84,6.84,0,0,1-4.7,1.45c-1,0-1.8,0-2.5-.11Zm1.38,8.9a11,11,0,0,0,1.38.06c2.94,0,4.52-1.54,4.52-4.26,0-2.38-1.4-3.88-4.29-3.88a8.59,8.59,0,0,0-1.61.14Z" transform="translate(-262.65 -262.8)" fill="#1d1d1b"/><path d="M374.57,292.47a5,5,0,0,0,2.45.65c1.4,0,2.23-.69,2.23-1.71s-.58-1.48-2-2c-1.73-.58-2.8-1.45-2.8-2.85,0-1.57,1.37-2.73,3.44-2.73a5.13,5.13,0,0,1,2.34.48l-.39,1.07a4.14,4.14,0,0,0-2-.48c-1.46,0-2,.82-2,1.51,0,.93.65,1.39,2.11,1.93,1.8.67,2.71,1.48,2.71,3s-1.2,2.9-3.71,2.9a5.62,5.62,0,0,1-2.72-.66Z" transform="translate(-262.65 -262.8)" fill="#1d1d1b"/><path d="M385.2,290.89l-1.1,3.16h-1.42L386.29,284h1.65l3.62,10.06H390.1L389,290.89Zm3.48-1-1.05-2.9c-.23-.66-.39-1.26-.54-1.83h0c-.15.58-.32,1.2-.53,1.81l-1,2.92Z" transform="translate(-262.65 -262.8)" fill="#1d1d1b"/><path d="M394.07,294.05V284h1.51l3.4,5.09a29.18,29.18,0,0,1,1.9,3.27h0c-.12-1.35-.15-2.57-.15-4.13V284h1.29v10.06h-1.39l-3.37-5.1a30.61,30.61,0,0,1-2-3.36h-.05c.09,1.28.1,2.49.1,4.15v4.3Z" transform="translate(-262.65 -262.8)" fill="#1d1d1b"/><path d="M405.4,284.13a19.27,19.27,0,0,1,2.91-.21,6.31,6.31,0,0,1,4.3,1.26,4.47,4.47,0,0,1,1.51,3.6,5.21,5.21,0,0,1-1.53,3.91,6.81,6.81,0,0,1-4.7,1.45,24.86,24.86,0,0,1-2.49-.11Zm1.37,8.9a11,11,0,0,0,1.38.06c2.94,0,4.52-1.54,4.52-4.26,0-2.38-1.4-3.88-4.29-3.88a8.59,8.59,0,0,0-1.61.14Z" transform="translate(-262.65 -262.8)" fill="#1d1d1b"/><path d="M422.34,289.34h-4.12V293h4.61v1.08h-6V284h5.73v1.09h-4.36v3.18h4.12Z" transform="translate(-262.65 -262.8)" fill="#1d1d1b"/><path d="M425.55,284.13a15.69,15.69,0,0,1,2.64-.21,4.62,4.62,0,0,1,3.08.82,2.48,2.48,0,0,1,.83,1.92,2.67,2.67,0,0,1-2,2.56v0a2.53,2.53,0,0,1,1.55,2,15.53,15.53,0,0,0,.82,2.76h-1.42a12.43,12.43,0,0,1-.7-2.41c-.31-1.37-.89-1.91-2.13-1.95h-1.3v4.36h-1.37Zm1.37,4.58h1.4c1.47,0,2.4-.76,2.4-1.91,0-1.31-1-1.87-2.44-1.88a6.12,6.12,0,0,0-1.36.12Z" transform="translate(-262.65 -262.8)" fill="#1d1d1b"/><path d="M434.81,292.47a5,5,0,0,0,2.45.65c1.4,0,2.22-.69,2.22-1.71s-.57-1.48-2-2c-1.74-.58-2.81-1.45-2.81-2.85,0-1.57,1.37-2.73,3.44-2.73a5.06,5.06,0,0,1,2.34.48l-.38,1.07a4.2,4.2,0,0,0-2-.48c-1.46,0-2,.82-2,1.51,0,.93.64,1.39,2.11,1.93,1.8.67,2.7,1.48,2.7,3s-1.2,2.9-3.71,2.9a5.57,5.57,0,0,1-2.71-.66Z" transform="translate(-262.65 -262.8)" fill="#1d1d1b"/><line x1="55.21" y1="10.33" x2="55.21" y2="52.6" fill="none" stroke="#1d1d1b" stroke-miterlimit="10"/><text transform="translate(61.13 41.74) scale(1.06 1)" font-size="6.78" fill="#1d1d1b" font-family="Calibri-Light, Calibri" font-weight="300" letter-spacing="0.06em">SOFT<tspan x="15.56" y="0" letter-spacing="0.02em">W</tspan><tspan x="21.65" y="0" letter-spacing="0.06em">ARE ENGINEER</tspan></text><path d="M292.68,279.18" transform="translate(-262.65 -262.8)" fill="#fff" stroke="#fff" stroke-miterlimit="10"/><path d="M283.29,277.27c-7.48-2.09-14.91-.89-19.46.23q-.6,21.64-1.18,43.3c17.36,2.88,34.47-4.82,39.61-14.26C308.56,295,296.72,281,283.29,277.27Zm-12.43,40.1a2.56,2.56,0,1,1,2.86-2.55A2.71,2.71,0,0,1,270.86,317.37Z" transform="translate(-262.65 -262.8)" fill="#1d1d1b"/><path d="M307.2,291.24c-1.39-1.89-3.36-4.39-5.89-7.22-8.24-9.18-13.58-11.73-12.85-14.08.58-1.9,5-3.46,20.37-2.81" transform="translate(-262.65 -262.8)" fill="#1d1d1b"/><rect x="41.35" width="4.83" height="4.34" fill="none"/></svg>